<svg version="1.1" id="Layer_1" xmlns="http://www.w3.org/2000/svg" xmlns:xlink="http://www.w3.org/1999/xlink" x="0px" y="0px"
	 width="100%" viewBox="0 0 1080 1080" enable-background="new 0 0 1080 1080" xml:space="preserve">
<path fill="#FFFFFF" opacity="1.000000" stroke="none" 
	d="
M685.000000,1081.000000 
	C456.692963,1081.000000 228.885910,1081.000000 1.039436,1081.000000 
	C1.039436,721.067810 1.039436,361.135681 1.039436,1.101749 
	C360.890594,1.101749 720.781250,1.101749 1080.835938,1.101749 
	C1080.835938,360.999939 1080.835938,720.999939 1080.835938,1081.000000 
	C949.135193,1081.000000 817.317566,1081.000000 685.000000,1081.000000 
M401.610260,871.889771 
	C445.259796,915.476807 488.909332,959.063782 532.011597,1002.104309 
	C561.153748,973.017822 590.444092,943.783386 620.317993,913.966553 
	C520.033142,813.711426 418.887665,712.596008 317.200470,610.938965 
	C540.921692,610.938965 763.966858,610.938965 987.111633,610.938965 
	C987.111633,569.449524 987.111633,528.368958 987.111633,486.411255 
	C764.052673,486.411255 541.193420,486.411255 318.334106,486.411255 
	C318.171509,485.955200 318.008881,485.499176 317.846252,485.043121 
	C418.775696,384.159515 519.705139,283.275879 620.063904,182.962692 
	C590.780640,153.726501 561.589905,124.582657 533.064087,96.102699 
	C382.038910,247.008148 230.632950,398.294159 79.316437,549.490723 
	C186.458115,656.667480 293.784180,764.028625 401.610260,871.889771 
z"/>
<path fill="#000000" opacity="1.000000" stroke="none" 
	d="
M401.360229,871.639771 
	C293.784180,764.028625 186.458115,656.667480 79.316437,549.490723 
	C230.632950,398.294159 382.038910,247.008148 533.064087,96.102699 
	C561.589905,124.582657 590.780640,153.726501 620.063904,182.962692 
	C519.705139,283.275879 418.775696,384.159515 317.846252,485.043121 
	C318.008881,485.499176 318.171509,485.955200 318.334106,486.411255 
	C541.193420,486.411255 764.052673,486.411255 987.111633,486.411255 
	C987.111633,528.368958 987.111633,569.449524 987.111633,610.938965 
	C763.966858,610.938965 540.921692,610.938965 317.200470,610.938965 
	C418.887665,712.596008 520.033142,813.711426 620.317993,913.966553 
	C590.444092,943.783386 561.153748,973.017822 532.011597,1002.104309 
	C488.909332,959.063782 445.259796,915.476807 401.360229,871.639771 
M317.273438,486.416473 
	C317.507904,486.433350 317.742340,486.450226 317.976807,486.467102 
	C317.867859,486.342773 317.758942,486.218445 317.273438,486.416473 
z"/>
<path fill="#BFBFBF" opacity="1.000000" stroke="none" 
	d="
M317.461731,486.255280 
	C317.758942,486.218445 317.867859,486.342773 317.976807,486.467102 
	C317.742340,486.450226 317.507904,486.433350 317.461731,486.255280 
z"/>
</svg>