<svg version="1.1" id="Layer_1" xmlns="http://www.w3.org/2000/svg" xmlns:xlink="http://www.w3.org/1999/xlink" x="0px" y="0px"
	 width="100%" viewBox="0 0 1080 1080" enable-background="new 0 0 1080 1080" xml:space="preserve">
<path fill="#000000" opacity="1.000000" stroke="none" 
	d="
M497.000000,1081.000000 
	C331.352386,1081.000000 166.204788,1081.000000 1.028589,1081.000000 
	C1.028589,721.060608 1.028589,361.121216 1.028589,1.090902 
	C360.897858,1.090902 720.795715,1.090902 1080.846802,1.090902 
	C1080.846802,360.999939 1080.846802,720.999939 1080.846802,1081.000000 
	C886.454102,1081.000000 691.977051,1081.000000 497.000000,1081.000000 
M673.256653,436.256256 
	C673.256653,436.256256 673.575867,436.516876 673.790527,437.360626 
	C673.159424,507.100220 672.528381,576.839783 671.895386,646.793091 
	C683.385254,646.793091 694.160828,646.793091 705.379578,646.793091 
	C706.131775,557.220886 706.882812,467.775085 707.638916,377.733643 
	C617.920166,376.996613 528.358337,376.260895 438.430603,375.522156 
	C438.430603,386.920593 438.430603,397.805084 438.430603,408.960358 
	C508.748718,409.569885 578.912048,410.178070 650.264954,410.796570 
	C554.302429,505.148468 459.343567,598.513611 364.062897,692.195068 
	C372.410156,700.110291 380.229156,707.524597 388.222382,715.104065 
	C389.098053,714.269714 390.305878,713.149963 391.479889,711.995789 
	C479.406494,625.551819 567.323730,539.098328 655.270081,452.674500 
	C661.055786,446.988983 667.062683,441.528625 673.256653,436.256256 
z"/>
<path fill="#FDFDFD" opacity="1.000000" stroke="none" 
	d="
M672.966675,435.963562 
	C667.062683,441.528625 661.055786,446.988983 655.270081,452.674500 
	C567.323730,539.098328 479.406494,625.551819 391.479889,711.995789 
	C390.305878,713.149963 389.098053,714.269714 388.222382,715.104065 
	C380.229156,707.524597 372.410156,700.110291 364.062897,692.195068 
	C459.343567,598.513611 554.302429,505.148468 650.264954,410.796570 
	C578.912048,410.178070 508.748718,409.569885 438.430603,408.960358 
	C438.430603,397.805084 438.430603,386.920593 438.430603,375.522156 
	C528.358337,376.260895 617.920166,376.996613 707.638916,377.733643 
	C706.882812,467.775085 706.131775,557.220886 705.379578,646.793091 
	C694.160828,646.793091 683.385254,646.793091 671.895386,646.793091 
	C672.528381,576.839783 673.159424,507.100220 673.789795,436.720154 
	C673.683777,435.792633 673.578491,435.505585 673.473206,435.218536 
	C673.304382,435.466888 673.135559,435.715210 672.966675,435.963562 
z"/>
<path fill="#000000" opacity="1.000000" stroke="none" 
	d="
M673.111694,436.109894 
	C673.135559,435.715210 673.304382,435.466888 673.473206,435.218536 
	C673.578491,435.505585 673.683777,435.792633 673.682495,436.298279 
	C673.575867,436.516876 673.256653,436.256256 673.111694,436.109894 
z"/>
</svg>