<svg version="1.1" id="Layer_1" xmlns="http://www.w3.org/2000/svg" xmlns:xlink="http://www.w3.org/1999/xlink" x="0px" y="0px"
	 width="100%" viewBox="0 0 1080 1080" enable-background="new 0 0 1080 1080" xml:space="preserve">
<path fill="#000000" opacity="1.000000" stroke="none" 
	d="
M685.000000,1081.000000 
	C456.692963,1081.000000 228.885910,1081.000000 1.039436,1081.000000 
	C1.039436,721.067810 1.039436,361.135681 1.039436,1.101749 
	C360.890594,1.101749 720.781250,1.101749 1080.835938,1.101749 
	C1080.835938,360.999939 1080.835938,720.999939 1080.835938,1081.000000 
	C949.135193,1081.000000 817.317566,1081.000000 685.000000,1081.000000 
M763.748718,486.306458 
	C763.748718,486.306458 763.898682,486.657959 762.986633,486.816193 
	C540.254822,486.816193 317.523041,486.816193 94.990463,486.816193 
	C94.990463,528.605530 94.990463,569.676636 94.990463,611.236511 
	C318.283539,611.236511 541.268799,611.236511 765.549561,611.236511 
	C663.552368,713.179321 562.449219,814.228577 461.311310,915.312561 
	C461.646576,915.754944 461.890472,916.168274 462.218903,916.497009 
	C490.011444,944.319092 517.840149,972.105164 545.562988,999.996460 
	C548.300659,1002.750732 550.110291,1002.333496 552.518494,999.764526 
	C558.878601,992.979492 565.286377,986.231567 571.879944,979.674744 
	C582.610046,969.004395 593.557129,958.552551 604.313293,947.908020 
	C616.345459,936.000793 628.265564,923.980469 640.236450,912.011414 
	C759.850037,792.415894 879.453003,672.809753 999.137939,553.285706 
	C1002.321960,550.105896 1002.634094,548.197510 999.290100,544.855774 
	C850.175659,395.842743 701.144531,246.746399 552.096069,97.667381 
	C551.074341,96.645515 549.949158,95.727104 549.612427,95.424828 
	C520.149902,124.837891 490.980408,153.958405 461.407074,183.482071 
	C462.464813,184.379288 463.954346,185.471344 465.245239,186.762100 
	C563.643555,285.151337 662.027039,383.555359 760.400269,481.969666 
	C761.672485,483.242310 762.798218,484.661346 763.748718,486.306458 
z"/>
<path fill="#FFFFFF" opacity="1.000000" stroke="none" 
	d="
M763.992310,486.012024 
	C762.798218,484.661346 761.672485,483.242310 760.400269,481.969666 
	C662.027039,383.555359 563.643555,285.151337 465.245239,186.762100 
	C463.954346,185.471344 462.464813,184.379288 461.407074,183.482071 
	C490.980408,153.958405 520.149902,124.837891 549.612427,95.424828 
	C549.949158,95.727104 551.074341,96.645515 552.096069,97.667381 
	C701.144531,246.746399 850.175659,395.842743 999.290100,544.855774 
	C1002.634094,548.197510 1002.321960,550.105896 999.137939,553.285706 
	C879.453003,672.809753 759.850037,792.415894 640.236450,912.011414 
	C628.265564,923.980469 616.345459,936.000793 604.313293,947.908020 
	C593.557129,958.552551 582.610046,969.004395 571.879944,979.674744 
	C565.286377,986.231567 558.878601,992.979492 552.518494,999.764526 
	C550.110291,1002.333496 548.300659,1002.750732 545.562988,999.996460 
	C517.840149,972.105164 490.011444,944.319092 462.218903,916.497009 
	C461.890472,916.168274 461.646576,915.754944 461.311310,915.312561 
	C562.449219,814.228577 663.552368,713.179321 765.549561,611.236511 
	C541.268799,611.236511 318.283539,611.236511 94.990463,611.236511 
	C94.990463,569.676636 94.990463,528.605530 94.990463,486.816193 
	C317.523041,486.816193 540.254822,486.816193 763.674683,486.817749 
	C764.491516,486.718109 764.620239,486.616943 764.749023,486.515778 
	C764.496765,486.347870 764.244568,486.179932 763.992310,486.012024 
z"/>
<path fill="#404040" opacity="1.000000" stroke="none" 
	d="
M763.870483,486.159241 
	C764.244568,486.179932 764.496765,486.347870 764.749023,486.515778 
	C764.620239,486.616943 764.491516,486.718109 764.130737,486.738647 
	C763.898682,486.657959 763.748718,486.306458 763.870483,486.159241 
z"/>
</svg>