<svg version="1.1" id="Layer_1" xmlns="http://www.w3.org/2000/svg" xmlns:xlink="http://www.w3.org/1999/xlink" x="0px" y="0px"
	 width="100%" viewBox="0 0 215 238" enable-background="new 0 0 215 238" xml:space="preserve">
<path fill="#1C1C20" opacity="1.000000" stroke="none" 
	d="
M96.000000,239.000000 
	C64.000000,239.000000 32.500004,239.000000 1.000004,239.000000 
	C1.000003,159.666672 1.000003,80.333344 1.000001,1.000015 
	C72.666656,1.000010 144.333313,1.000010 215.999969,1.000005 
	C215.999985,80.333321 215.999985,159.666641 216.000000,238.999969 
	C176.166672,239.000000 136.333328,239.000000 96.000000,239.000000 
M122.393394,110.893478 
	C127.794266,105.161652 133.195145,99.429817 138.596024,93.697990 
	C139.779587,112.642570 139.775986,130.583847 139.785583,148.525116 
	C139.786469,150.188644 139.487930,151.992920 140.031708,153.473541 
	C140.513855,154.786392 141.975220,155.739609 143.004333,156.851562 
	C144.131744,155.655792 145.578781,154.619797 146.282501,153.212204 
	C146.817459,152.142136 146.415726,150.599640 146.416672,149.267349 
	C146.431213,128.780685 146.296844,108.292046 146.571976,87.808907 
	C146.631638,83.367561 145.346878,81.902115 141.015717,81.927185 
	C119.863022,82.049622 98.709221,81.987656 77.555817,81.975739 
	C75.005226,81.974297 71.991928,81.761299 71.886879,85.201447 
	C71.771126,88.991669 74.898712,88.841240 77.657852,88.837608 
	C94.980293,88.814781 112.302788,88.826096 129.625259,88.826103 
	C131.022644,88.826103 132.420044,88.826096 134.815338,88.826096 
	C133.160828,90.609413 132.324066,91.574486 131.422104,92.474182 
	C112.672035,111.177025 93.914383,129.872253 75.159149,148.569916 
	C74.333717,149.392822 73.039413,150.109299 72.805695,151.078461 
	C72.434364,152.618256 72.300812,154.597427 73.013145,155.854355 
	C73.366066,156.477097 75.954529,156.251984 77.298271,155.765732 
	C78.439095,155.352921 79.255615,154.025024 80.197327,153.083679 
	C94.097809,139.188751 107.995232,125.290756 122.393394,110.893478 
z"/>
<path fill="#F6F6F6" opacity="1.000000" stroke="none" 
	d="
M122.143387,111.143478 
	C107.995232,125.290756 94.097809,139.188751 80.197327,153.083679 
	C79.255615,154.025024 78.439095,155.352921 77.298271,155.765732 
	C75.954529,156.251984 73.366066,156.477097 73.013145,155.854355 
	C72.300812,154.597427 72.434364,152.618256 72.805695,151.078461 
	C73.039413,150.109299 74.333717,149.392822 75.159149,148.569916 
	C93.914383,129.872253 112.672035,111.177025 131.422104,92.474182 
	C132.324066,91.574486 133.160828,90.609413 134.815338,88.826096 
	C132.420044,88.826096 131.022644,88.826103 129.625259,88.826103 
	C112.302788,88.826096 94.980293,88.814781 77.657852,88.837608 
	C74.898712,88.841240 71.771126,88.991669 71.886879,85.201447 
	C71.991928,81.761299 75.005226,81.974297 77.555817,81.975739 
	C98.709221,81.987656 119.863022,82.049622 141.015717,81.927185 
	C145.346878,81.902115 146.631638,83.367561 146.571976,87.808907 
	C146.296844,108.292046 146.431213,128.780685 146.416672,149.267349 
	C146.415726,150.599640 146.817459,152.142136 146.282501,153.212204 
	C145.578781,154.619797 144.131744,155.655792 143.004333,156.851562 
	C141.975220,155.739609 140.513855,154.786392 140.031708,153.473541 
	C139.487930,151.992920 139.786469,150.188644 139.785583,148.525116 
	C139.775986,130.583847 139.779587,112.642570 138.596024,93.697990 
	C133.195145,99.429817 127.794266,105.161652 122.143387,111.143478 
z"/>
</svg>