<svg version="1.1" id="Layer_1" xmlns="http://www.w3.org/2000/svg" xmlns:xlink="http://www.w3.org/1999/xlink" x="0px" y="0px"
	 width="100%" viewBox="0 0 1080 1080" enable-background="new 0 0 1080 1080" xml:space="preserve">
<path fill="#000000" opacity="1.000000" stroke="none" 
	d="
M685.000000,1081.000000 
	C456.692963,1081.000000 228.885910,1081.000000 1.039436,1081.000000 
	C1.039436,721.067810 1.039436,361.135681 1.039436,1.101749 
	C360.890594,1.101749 720.781250,1.101749 1080.835938,1.101749 
	C1080.835938,360.999939 1080.835938,720.999939 1080.835938,1081.000000 
	C949.135193,1081.000000 817.317566,1081.000000 685.000000,1081.000000 
M401.610260,871.889526 
	C445.246033,915.571167 488.881805,959.252808 532.093445,1002.509827 
	C561.522278,973.149658 590.797607,943.942688 620.554810,914.254883 
	C519.862915,813.600159 418.802185,712.576782 317.043671,610.855835 
	C540.951111,610.855835 764.082397,610.855835 986.959961,610.855835 
	C986.959961,569.167053 986.959961,528.098145 986.959961,486.318787 
	C763.856934,486.318787 541.106018,486.318787 316.910980,486.318787 
	C418.926208,384.347778 519.861267,283.456512 620.285522,183.075760 
	C590.868225,153.707275 561.671570,124.559151 533.095825,96.030930 
	C382.035889,246.968002 230.620361,398.260345 79.291557,549.466003 
	C186.448318,656.657776 293.779266,764.023743 401.610260,871.889526 
z"/>
<path fill="#FFFFFF" opacity="1.000000" stroke="none" 
	d="
M401.360229,871.639648 
	C293.779266,764.023743 186.448318,656.657776 79.291557,549.466003 
	C230.620361,398.260345 382.035889,246.968002 533.095825,96.030930 
	C561.671570,124.559151 590.868225,153.707275 620.285522,183.075760 
	C519.861267,283.456512 418.926208,384.347778 316.910980,486.318787 
	C541.106018,486.318787 763.856934,486.318787 986.959961,486.318787 
	C986.959961,528.098145 986.959961,569.167053 986.959961,610.855835 
	C764.082397,610.855835 540.951111,610.855835 317.043671,610.855835 
	C418.802185,712.576782 519.862915,813.600159 620.554810,914.254883 
	C590.797607,943.942688 561.522278,973.149658 532.093445,1002.509827 
	C488.881805,959.252808 445.246033,915.571167 401.360229,871.639648 
M317.273499,486.416443 
	C317.507935,486.433319 317.742340,486.450226 317.976776,486.467102 
	C317.867859,486.342773 317.758942,486.218445 317.273499,486.416443 
z"/>
<path fill="#404040" opacity="1.000000" stroke="none" 
	d="
M317.461792,486.255249 
	C317.758942,486.218445 317.867859,486.342773 317.976776,486.467102 
	C317.742340,486.450226 317.507935,486.433319 317.461792,486.255249 
z"/>
</svg>